<svg xmlns="http://www.w3.org/2000/svg" viewBox="0 0 320 420" fill="none">
  <rect width="320" height="420" fill="#0f0f0f"/>
  <rect x="24" y="24" width="272" height="372" fill="none" stroke="#f5f0e8" stroke-width="3"/>
  <rect x="30" y="30" width="260" height="360" fill="none" stroke="#f5f0e8" stroke-width="1"/>
  <path d="M 24 50 L 24 24 L 50 24" fill="none" stroke="#c2410c" stroke-width="1.5"/>
  <path d="M 270 24 L 296 24 L 296 50" fill="none" stroke="#c2410c" stroke-width="1.5"/>
  <path d="M 24 370 L 24 396 L 50 396" fill="none" stroke="#c2410c" stroke-width="1.5"/>
  <path d="M 270 396 L 296 396 L 296 370" fill="none" stroke="#c2410c" stroke-width="1.5"/>
  <line x1="54" y1="58" x2="266" y2="58" stroke="#f5f0e8" stroke-width="1"/>
  <line x1="54" y1="62" x2="266" y2="62" stroke="#c2410c" stroke-width="0.5"/>
  <text x="80" y="56" fill="#f5f0e8" font-size="10">&#9733;</text>
  <text x="160" y="56" fill="#c2410c" font-size="10">&#9733;</text>
  <text x="240" y="56" fill="#f5f0e8" font-size="10">&#9733;</text>
  <text x="160" y="168" text-anchor="middle" fill="#f5f0e8" font-family="Bebas Neue, Impact, Haettenschweiler, sans-serif" font-size="56" font-weight="700" letter-spacing="0.12em">PIGNITION</text>
  <text x="160" y="198" text-anchor="middle" fill="#c2410c" font-size="8" letter-spacing="0.6em">&#183; &#183; &#183;</text>
  <text x="160" y="228" text-anchor="middle" fill="#f5f0e8" font-family="Inter, system-ui, sans-serif" font-size="11" font-weight="600" letter-spacing="0.4em">SOUTHERN OUTLAW BBQ</text>
  <line x1="70" y1="258" x2="250" y2="258" stroke="#f5f0e8" stroke-width="0.5"/>
  <line x1="70" y1="264" x2="250" y2="264" stroke="#c2410c" stroke-width="1"/>
  <line x1="70" y1="268" x2="250" y2="268" stroke="#f5f0e8" stroke-width="0.5"/>
  <text x="160" y="310" text-anchor="middle" fill="#c2410c" font-size="14">&#9733;</text>
</svg>
