<svg xmlns="http://www.w3.org/2000/svg" viewBox="0 0 480 200" fill="none">
  <rect width="480" height="200" fill="#0f0f0f"/>
  <rect x="20" y="20" width="440" height="160" fill="none" stroke="#f5f0e8" stroke-width="3"/>
  <rect x="26" y="26" width="428" height="148" fill="none" stroke="#f5f0e8" stroke-width="1"/>
  <path d="M 20 20 L 20 50 L 26 44 L 26 26 L 44 26" fill="none" stroke="#c2410c" stroke-width="1.5"/>
  <path d="M 436 26 L 454 26 L 454 44 L 460 50 L 460 20" fill="none" stroke="#c2410c" stroke-width="1.5"/>
  <path d="M 20 180 L 20 150 L 26 156 L 26 174 L 44 174" fill="none" stroke="#c2410c" stroke-width="1.5"/>
  <path d="M 436 174 L 454 174 L 454 156 L 460 150 L 460 180" fill="none" stroke="#c2410c" stroke-width="1.5"/>
  <line x1="44" y1="58" x2="44" y2="142" stroke="#f5f0e8" stroke-width="0.5"/>
  <text x="44" y="100" text-anchor="middle" fill="#c2410c" font-size="12">&#9733;</text>
  <line x1="436" y1="58" x2="436" y2="142" stroke="#f5f0e8" stroke-width="0.5"/>
  <text x="436" y="100" text-anchor="middle" fill="#c2410c" font-size="12">&#9733;</text>
  <line x1="60" y1="52" x2="420" y2="52" stroke="#c2410c" stroke-width="0.5"/>
  <text x="240" y="108" text-anchor="middle" fill="#f5f0e8" font-family="Bebas Neue, Impact, Haettenschweiler, sans-serif" font-size="48" font-weight="700" letter-spacing="0.14em">PIGNITION</text>
  <line x1="160" y1="118" x2="320" y2="118" stroke="#f5f0e8" stroke-width="0.5"/>
  <text x="240" y="126" text-anchor="middle" fill="#c2410c" font-size="7" letter-spacing="0.5em">&#183; &#183; &#183;</text>
  <line x1="160" y1="132" x2="320" y2="132" stroke="#f5f0e8" stroke-width="0.5"/>
  <text x="240" y="152" text-anchor="middle" fill="#f5f0e8" font-family="Inter, system-ui, sans-serif" font-size="10" font-weight="600" letter-spacing="0.45em">SOUTHERN OUTLAW BBQ</text>
  <line x1="60" y1="148" x2="420" y2="148" stroke="#c2410c" stroke-width="0.5"/>
</svg>
